<mxfile host="app.diagrams.net" modified="2023-07-20T17:00:27.654Z" agent="Mozilla/5.0 (Windows NT 10.0; Win64; x64) AppleWebKit/537.36 (KHTML, like Gecko) Chrome/114.0.0.0 Safari/537.36" etag="qFsoAqNkY1NRjzS-nriJ" version="21.6.3" type="github">
  <diagram id="C5RBs43oDa-KdzZeNtuy" name="Page-1">
    <mxGraphModel dx="1434" dy="707" grid="0" gridSize="10" guides="1" tooltips="1" connect="1" arrows="1" fold="1" page="1" pageScale="1" pageWidth="827" pageHeight="1169" background="#ffffff" math="0" shadow="0">
      <root>
        <mxCell id="WIyWlLk6GJQsqaUBKTNV-0" />
        <mxCell id="WIyWlLk6GJQsqaUBKTNV-1" parent="WIyWlLk6GJQsqaUBKTNV-0" />
        <mxCell id="9LIf0RyuC-8eNZ3O__ow-5" value="&lt;font style=&quot;font-size: 24px;&quot;&gt;Amazon Web Services&lt;/font&gt;" style="rounded=1;whiteSpace=wrap;html=1;fillColor=#dae8fc;strokeColor=#6c8ebf;" vertex="1" parent="WIyWlLk6GJQsqaUBKTNV-1">
          <mxGeometry x="90" y="100" width="300" height="60" as="geometry" />
        </mxCell>
        <mxCell id="9LIf0RyuC-8eNZ3O__ow-12" value="" style="outlineConnect=0;dashed=0;verticalLabelPosition=bottom;verticalAlign=top;align=center;html=1;shape=mxgraph.aws3.rds;fillColor=#2E73B8;gradientColor=none;" vertex="1" parent="WIyWlLk6GJQsqaUBKTNV-1">
          <mxGeometry x="90" y="170" width="72" height="81" as="geometry" />
        </mxCell>
        <mxCell id="9LIf0RyuC-8eNZ3O__ow-13" value="RDS (postgres) - &quot;keywork-db&quot;" style="text;html=1;strokeColor=none;fillColor=none;align=center;verticalAlign=middle;whiteSpace=wrap;rounded=0;" vertex="1" parent="WIyWlLk6GJQsqaUBKTNV-1">
          <mxGeometry x="90" y="260" width="90" height="30" as="geometry" />
        </mxCell>
        <mxCell id="9LIf0RyuC-8eNZ3O__ow-28" style="edgeStyle=orthogonalEdgeStyle;rounded=0;orthogonalLoop=1;jettySize=auto;html=1;" edge="1" parent="WIyWlLk6GJQsqaUBKTNV-1" source="9LIf0RyuC-8eNZ3O__ow-14" target="9LIf0RyuC-8eNZ3O__ow-17">
          <mxGeometry relative="1" as="geometry" />
        </mxCell>
        <mxCell id="9LIf0RyuC-8eNZ3O__ow-14" value="" style="outlineConnect=0;dashed=0;verticalLabelPosition=bottom;verticalAlign=top;align=center;html=1;shape=mxgraph.aws3.bucket_with_objects;fillColor=#E05243;gradientColor=none;" vertex="1" parent="WIyWlLk6GJQsqaUBKTNV-1">
          <mxGeometry x="440" y="190" width="60" height="61.5" as="geometry" />
        </mxCell>
        <mxCell id="9LIf0RyuC-8eNZ3O__ow-15" value="" style="outlineConnect=0;dashed=0;verticalLabelPosition=bottom;verticalAlign=top;align=center;html=1;shape=mxgraph.aws3.cloud_2;fillColor=#F58534;gradientColor=none;" vertex="1" parent="WIyWlLk6GJQsqaUBKTNV-1">
          <mxGeometry x="200" y="40" width="75" height="75" as="geometry" />
        </mxCell>
        <mxCell id="9LIf0RyuC-8eNZ3O__ow-29" style="edgeStyle=orthogonalEdgeStyle;rounded=0;orthogonalLoop=1;jettySize=auto;html=1;" edge="1" parent="WIyWlLk6GJQsqaUBKTNV-1" source="9LIf0RyuC-8eNZ3O__ow-17" target="9LIf0RyuC-8eNZ3O__ow-13">
          <mxGeometry relative="1" as="geometry" />
        </mxCell>
        <mxCell id="9LIf0RyuC-8eNZ3O__ow-17" value="" style="outlineConnect=0;dashed=0;verticalLabelPosition=bottom;verticalAlign=top;align=center;html=1;shape=mxgraph.aws3.deployment;fillColor=#F58534;gradientColor=none;" vertex="1" parent="WIyWlLk6GJQsqaUBKTNV-1">
          <mxGeometry x="290" y="320" width="55.5" height="73.5" as="geometry" />
        </mxCell>
        <mxCell id="9LIf0RyuC-8eNZ3O__ow-20" value="Elastic Beanstalk - nodejs - udagram-api" style="text;html=1;strokeColor=none;fillColor=none;align=center;verticalAlign=middle;whiteSpace=wrap;rounded=0;" vertex="1" parent="WIyWlLk6GJQsqaUBKTNV-1">
          <mxGeometry x="277.75" y="410" width="80" height="30" as="geometry" />
        </mxCell>
        <mxCell id="9LIf0RyuC-8eNZ3O__ow-21" value="s3 Bucket - Angular - keywork" style="text;html=1;strokeColor=none;fillColor=none;align=center;verticalAlign=middle;whiteSpace=wrap;rounded=0;" vertex="1" parent="WIyWlLk6GJQsqaUBKTNV-1">
          <mxGeometry x="440" y="260" width="60" height="30" as="geometry" />
        </mxCell>
        <mxCell id="9LIf0RyuC-8eNZ3O__ow-26" style="edgeStyle=orthogonalEdgeStyle;rounded=0;orthogonalLoop=1;jettySize=auto;html=1;" edge="1" parent="WIyWlLk6GJQsqaUBKTNV-1" source="9LIf0RyuC-8eNZ3O__ow-22">
          <mxGeometry relative="1" as="geometry">
            <mxPoint x="510" y="202" as="targetPoint" />
          </mxGeometry>
        </mxCell>
        <mxCell id="9LIf0RyuC-8eNZ3O__ow-22" value="" style="outlineConnect=0;dashed=0;verticalLabelPosition=bottom;verticalAlign=top;align=center;html=1;shape=mxgraph.aws3.management_console;fillColor=#0050ef;strokeColor=#001DBC;fontColor=#ffffff;" vertex="1" parent="WIyWlLk6GJQsqaUBKTNV-1">
          <mxGeometry x="680" y="170" width="63" height="63" as="geometry" />
        </mxCell>
        <mxCell id="9LIf0RyuC-8eNZ3O__ow-23" value="" style="outlineConnect=0;dashed=0;verticalLabelPosition=bottom;verticalAlign=top;align=center;html=1;shape=mxgraph.aws3.mobile_client;fillColor=#0050ef;fontColor=#ffffff;strokeColor=#001DBC;" vertex="1" parent="WIyWlLk6GJQsqaUBKTNV-1">
          <mxGeometry x="760" y="170" width="40.5" height="63" as="geometry" />
        </mxCell>
        <mxCell id="9LIf0RyuC-8eNZ3O__ow-25" value="User" style="text;html=1;strokeColor=none;fillColor=none;align=center;verticalAlign=middle;whiteSpace=wrap;rounded=0;" vertex="1" parent="WIyWlLk6GJQsqaUBKTNV-1">
          <mxGeometry x="700" y="260" width="60" height="30" as="geometry" />
        </mxCell>
        <mxCell id="9LIf0RyuC-8eNZ3O__ow-30" value="Visits frontend" style="text;html=1;strokeColor=none;fillColor=none;align=center;verticalAlign=middle;whiteSpace=wrap;rounded=0;" vertex="1" parent="WIyWlLk6GJQsqaUBKTNV-1">
          <mxGeometry x="540" y="160" width="120" height="30" as="geometry" />
        </mxCell>
        <mxCell id="9LIf0RyuC-8eNZ3O__ow-31" value="fetches info" style="text;html=1;strokeColor=none;fillColor=none;align=center;verticalAlign=middle;whiteSpace=wrap;rounded=0;" vertex="1" parent="WIyWlLk6GJQsqaUBKTNV-1">
          <mxGeometry x="310" y="190" width="100" height="30" as="geometry" />
        </mxCell>
        <mxCell id="9LIf0RyuC-8eNZ3O__ow-32" value="save to db" style="text;html=1;strokeColor=none;fillColor=none;align=center;verticalAlign=middle;whiteSpace=wrap;rounded=0;" vertex="1" parent="WIyWlLk6GJQsqaUBKTNV-1">
          <mxGeometry x="170" y="330" width="120" height="30" as="geometry" />
        </mxCell>
      </root>
    </mxGraphModel>
  </diagram>
</mxfile>
